<svg width="107" height="22" viewBox="0 0 107 22" fill="none" xmlns="http://www.w3.org/2000/svg">
<path d="M15.3125 13.5625V16.6523H0.970703L0.779297 14.2598L9.07812 1.09375H12.209L8.81836 6.76758L4.68945 13.5625H15.3125ZM13.0566 1.09375V21H9.11914V1.09375H13.0566ZM31.0625 17.9238V21H17.4453V18.375L23.8848 11.4707C24.5319 10.7507 25.0423 10.1172 25.416 9.57031C25.7897 9.01432 26.0586 8.51758 26.2227 8.08008C26.3958 7.63346 26.4824 7.20964 26.4824 6.80859C26.4824 6.20703 26.3822 5.69206 26.1816 5.26367C25.9811 4.82617 25.6849 4.48893 25.293 4.25195C24.9102 4.01497 24.4362 3.89648 23.8711 3.89648C23.2695 3.89648 22.75 4.04232 22.3125 4.33398C21.8841 4.62565 21.556 5.03125 21.3281 5.55078C21.1094 6.07031 21 6.6582 21 7.31445H17.0488C17.0488 6.12956 17.3314 5.04492 17.8965 4.06055C18.4616 3.06706 19.2591 2.27865 20.2891 1.69531C21.319 1.10286 22.5404 0.806641 23.9531 0.806641C25.3477 0.806641 26.5234 1.03451 27.4805 1.49023C28.4466 1.93685 29.1758 2.58398 29.668 3.43164C30.1693 4.27018 30.4199 5.27279 30.4199 6.43945C30.4199 7.0957 30.3151 7.73828 30.1055 8.36719C29.8958 8.98698 29.5951 9.60677 29.2031 10.2266C28.8203 10.8372 28.3555 11.457 27.8086 12.0859C27.2617 12.7148 26.6556 13.3665 25.9902 14.041L22.5312 17.9238H31.0625ZM46.9219 9.29688V12.7422C46.9219 14.237 46.7624 15.5267 46.4434 16.6113C46.1243 17.6868 45.6641 18.571 45.0625 19.2637C44.4701 19.9473 43.7637 20.4531 42.9434 20.7812C42.123 21.1094 41.2116 21.2734 40.209 21.2734C39.4069 21.2734 38.6595 21.1732 37.9668 20.9727C37.2741 20.763 36.6497 20.4395 36.0938 20.002C35.5469 19.5645 35.0729 19.013 34.6719 18.3477C34.2799 17.6732 33.9792 16.8711 33.7695 15.9414C33.5599 15.0117 33.4551 13.9453 33.4551 12.7422V9.29688C33.4551 7.80208 33.6146 6.52148 33.9336 5.45508C34.2617 4.37956 34.722 3.5 35.3145 2.81641C35.916 2.13281 36.627 1.63151 37.4473 1.3125C38.2676 0.984375 39.179 0.820312 40.1816 0.820312C40.9837 0.820312 41.7266 0.92513 42.4102 1.13477C43.1029 1.33529 43.7272 1.64974 44.2832 2.07812C44.8392 2.50651 45.3132 3.05794 45.7051 3.73242C46.097 4.39779 46.3978 5.19531 46.6074 6.125C46.8171 7.04557 46.9219 8.10286 46.9219 9.29688ZM42.9707 13.2617V8.76367C42.9707 8.04362 42.9297 7.41471 42.8477 6.87695C42.7747 6.33919 42.6608 5.88346 42.5059 5.50977C42.3509 5.12695 42.1595 4.81706 41.9316 4.58008C41.7038 4.3431 41.444 4.16992 41.1523 4.06055C40.8607 3.95117 40.5371 3.89648 40.1816 3.89648C39.735 3.89648 39.3385 3.98307 38.9922 4.15625C38.6549 4.32943 38.3678 4.60742 38.1309 4.99023C37.8939 5.36393 37.7116 5.86523 37.584 6.49414C37.4655 7.11393 37.4062 7.87044 37.4062 8.76367V13.2617C37.4062 13.9818 37.4427 14.6152 37.5156 15.1621C37.5977 15.709 37.7161 16.1784 37.8711 16.5703C38.0352 16.9531 38.2266 17.2676 38.4453 17.5137C38.6732 17.7507 38.9329 17.9238 39.2246 18.0332C39.5254 18.1426 39.8535 18.1973 40.209 18.1973C40.6465 18.1973 41.0339 18.1107 41.3711 17.9375C41.7174 17.7552 42.0091 17.4727 42.2461 17.0898C42.4922 16.6979 42.6745 16.1875 42.793 15.5586C42.9115 14.9297 42.9707 14.1641 42.9707 13.2617ZM69.7812 17.8008V21H59.7598V17.8008H69.7812ZM61.0859 1.09375V21H56.9844V1.09375H61.0859ZM80.5 4.49805L75.0859 21H70.7246L78.1211 1.09375H80.8965L80.5 4.49805ZM84.998 21L79.5703 4.49805L79.1328 1.09375H81.9355L89.373 21H84.998ZM84.752 13.5898V16.8027H74.2383V13.5898H84.752ZM99.0117 12.2637H93.8984L93.8711 9.44727H98.1641C98.9206 9.44727 99.5404 9.35156 100.023 9.16016C100.507 8.95964 100.867 8.67253 101.104 8.29883C101.35 7.91602 101.473 7.45117 101.473 6.9043C101.473 6.28451 101.354 5.7832 101.117 5.40039C100.889 5.01758 100.529 4.73958 100.037 4.56641C99.554 4.39323 98.9297 4.30664 98.1641 4.30664H95.3203V21H91.2188V1.09375H98.1641C99.3216 1.09375 100.356 1.20312 101.268 1.42188C102.188 1.64062 102.967 1.97331 103.605 2.41992C104.243 2.86654 104.731 3.43164 105.068 4.11523C105.406 4.78971 105.574 5.5918 105.574 6.52148C105.574 7.3418 105.387 8.09831 105.014 8.79102C104.649 9.48372 104.07 10.0488 103.277 10.4863C102.493 10.9238 101.468 11.1654 100.201 11.2109L99.0117 12.2637ZM98.834 21H92.7773L94.377 17.8008H98.834C99.554 17.8008 100.142 17.6868 100.598 17.459C101.053 17.222 101.391 16.903 101.609 16.502C101.828 16.1009 101.938 15.6406 101.938 15.1211C101.938 14.5378 101.837 14.0319 101.637 13.6035C101.445 13.1751 101.135 12.847 100.707 12.6191C100.279 12.3822 99.7135 12.2637 99.0117 12.2637H95.0605L95.0879 9.44727H100.01L100.953 10.5547C102.165 10.5365 103.141 10.7507 103.879 11.1973C104.626 11.6348 105.169 12.2044 105.506 12.9062C105.852 13.6081 106.025 14.36 106.025 15.1621C106.025 16.4382 105.747 17.5137 105.191 18.3887C104.635 19.2546 103.82 19.9062 102.744 20.3438C101.678 20.7812 100.374 21 98.834 21Z" fill="#323334"/>
</svg>
